<svg xmlns="http://www.w3.org/2000/svg" width="20.73" height="20.25" viewBox="0 0 20.73 20.25">
  <path id="wi-hail" d="M4.64,16.9a4.749,4.749,0,0,0,1.39,3.43,4.871,4.871,0,0,0,3.4,1.53.153.153,0,0,0,.17-.17V20.35a.153.153,0,0,0-.17-.17,3.077,3.077,0,0,1-2.18-1.02,3.19,3.19,0,0,1-.9-2.26,3.106,3.106,0,0,1,.84-2.16,3.293,3.293,0,0,1,2.09-1.07l.53-.03c.13,0,.2-.06.2-.19l.06-.53a4.052,4.052,0,0,1,1.37-2.71,4.271,4.271,0,0,1,5.7,0,4.142,4.142,0,0,1,1.39,2.71l.08.58c0,.11.06.17.18.17H20.4a3.182,3.182,0,0,1,2.31.96,3.075,3.075,0,0,1,.98,2.27,3.19,3.19,0,0,1-.9,2.26,3.1,3.1,0,0,1-2.18,1.02c-.13,0-.2.06-.2.17v1.34c0,.11.07.17.2.17a4.7,4.7,0,0,0,2.4-.71,4.945,4.945,0,0,0,2.36-4.24,4.724,4.724,0,0,0-.67-2.47,4.832,4.832,0,0,0-1.81-1.78A5.011,5.011,0,0,0,20.4,12h-.32A5.954,5.954,0,0,0,14.3,7.44,5.986,5.986,0,0,0,8.45,12.1a4.755,4.755,0,0,0-2.73,1.73A4.831,4.831,0,0,0,4.64,16.9Zm5.45,7.2a.863.863,0,0,0,.46.46.71.71,0,0,0,.62.02.8.8,0,0,0,.45-.45.756.756,0,0,0,.02-.64.78.78,0,0,0-.45-.44.658.658,0,0,0-.61-.03.849.849,0,0,0-.46.47A.677.677,0,0,0,10.09,24.1Zm.63-2.82a.76.76,0,0,0,.15.45.874.874,0,0,0,.46.32.622.622,0,0,0,.62.01.813.813,0,0,0,.44-.6l.9-3.38a.856.856,0,0,0-.08-.67.722.722,0,0,0-.53-.36.986.986,0,0,0-.24-.03.843.843,0,0,0-.47.15.808.808,0,0,0-.32.44L10.77,21A1.429,1.429,0,0,0,10.72,21.28Zm1.86,5.59a.6.6,0,0,0,.06.29.769.769,0,0,0,.45.45.671.671,0,0,0,.33.08,1.271,1.271,0,0,0,.3-.06.775.775,0,0,0,.47-.45.763.763,0,0,0,0-.66.88.88,0,0,0-.45-.46.745.745,0,0,0-.62,0,.81.81,0,0,0-.41.36A.915.915,0,0,0,12.58,26.87Zm.73-2.61a.732.732,0,0,0,.63.73.965.965,0,0,0,.24.04.855.855,0,0,0,.38-.08.727.727,0,0,0,.42-.57l1.67-6.29a.9.9,0,0,0-.06-.65.76.76,0,0,0-.49-.38,1.115,1.115,0,0,0-.27-.03.9.9,0,0,0-.48.15.659.659,0,0,0-.3.44l-1.71,6.34A2.435,2.435,0,0,0,13.31,24.26Zm3.43-.46a.566.566,0,0,0,.08.32.858.858,0,0,0,.44.44,1.039,1.039,0,0,0,.35.07,1.271,1.271,0,0,0,.3-.06.8.8,0,0,0,.46-.44.908.908,0,0,0-.01-.63.839.839,0,0,0-.42-.45.746.746,0,0,0-.65-.03.849.849,0,0,0-.46.47A.586.586,0,0,0,16.74,23.8Zm.73-2.57a.8.8,0,0,0,.16.45.835.835,0,0,0,.45.33c.16.03.25.05.27.05a.932.932,0,0,0,.37-.1.751.751,0,0,0,.4-.52l.9-3.34c.02-.17.03-.26.03-.26a.812.812,0,0,0-.15-.46.784.784,0,0,0-.45-.31,1.222,1.222,0,0,0-.26-.03.843.843,0,0,0-.47.15.784.784,0,0,0-.31.45L17.51,21Z" transform="translate(-4.64 -7.44)" fill="#fff"/>
</svg>
